<svg width="30" height="30" viewBox="0 0 30 30" fill="none" xmlns="http://www.w3.org/2000/svg">
<g opacity="0.7">
<path d="M12.4999 22.5C14.7186 22.4995 16.8734 21.7568 18.6211 20.39L24.1161 25.885L25.8836 24.1175L20.3886 18.6225C21.7561 16.8746 22.4993 14.7193 22.4999 12.5C22.4999 6.98625 18.0136 2.5 12.4999 2.5C6.98613 2.5 2.49988 6.98625 2.49988 12.5C2.49988 18.0137 6.98613 22.5 12.4999 22.5ZM12.4999 5C16.6361 5 19.9999 8.36375 19.9999 12.5C19.9999 16.6362 16.6361 20 12.4999 20C8.36363 20 4.99988 16.6362 4.99988 12.5C4.99988 8.36375 8.36363 5 12.4999 5Z" fill="#8F9298"/>
</g>
</svg>
